<?xml version="1.0" encoding="utf-8"?>
<!-- Generator: Adobe Illustrator 25.1.0, SVG Export Plug-In . SVG Version: 6.00 Build 0)  -->
<svg version="1.1" id="Layer_1" xmlns="http://www.w3.org/2000/svg" xmlns:xlink="http://www.w3.org/1999/xlink" x="0px" y="0px"
	 viewBox="0 0 731.91 828.65" style="enable-background:new 0 0 731.91 828.65;" xml:space="preserve">
<style type="text/css">
	.st0{fill:#ED8323;}
	.st1{fill:#808080;}
</style>
<g>
	<g>
		<path class="st0" d="M334.2,171.73c-17.18,9.92-33.77,19.52-50.39,29.09c-47.43,27.31-94.85,54.62-142.32,81.85
			c-2.24,1.29-3.04,2.69-3.04,5.27c0.07,84.48,0.07,168.96,0,253.44c0,2.46,0.76,3.77,2.88,4.99
			c68.23,39.14,136.42,78.36,204.66,117.49c2.56,1.47,3.62,2.97,3.61,6.04c-0.12,43.61-0.08,87.23-0.08,130.84c0,1.21,0,2.41,0,4.21
			c-5-2.84-9.52-5.37-14.02-7.96c-91.2-52.46-182.4-104.93-273.6-157.4c-13.72-7.9-27.41-15.87-41.18-23.68
			c-2.11-1.19-2.95-2.46-2.95-4.95c0.07-131.1,0.07-262.19,0-393.29c0-2.34,0.82-3.53,2.77-4.65
			c62.83-36.03,125.65-72.1,188.41-108.25c3.1-1.79,5.38-2.07,8.7-0.15c37.32,21.62,74.76,43.04,112.16,64.52
			C331.09,169.89,332.36,170.65,334.2,171.73z"/>
		<path class="st1" d="M380.04,805.01c0-9.32,0-17.94,0-26.56c0-35.74,0.07-71.48-0.1-107.22c-0.02-3.83,1.08-5.89,4.45-7.81
			c64.82-37.12,129.56-74.37,194.31-111.6c1.08-0.62,2.07-1.5,3.23-1.86c8.07-2.47,9.21-8.08,9.18-15.89
			c-0.3-81.98-0.18-163.96-0.24-245.94c0-2.78,0.64-4.36,3.25-5.85c37.94-21.67,75.79-43.5,113.66-65.29
			c1.15-0.66,2.35-1.24,4.05-2.14c0,1.82,0,3.14,0,4.46c0,130.34-0.01,260.69,0.08,391.03c0,2.92-0.92,4.41-3.38,5.83
			c-78.82,45.25-157.59,90.58-236.37,135.89c-29.78,17.13-59.58,34.24-89.37,51.36C382.05,803.82,381.32,804.26,380.04,805.01z"/>
		<path class="st0" d="M681.57,197.23c-9.68,5.59-18.81,10.88-27.95,16.15c-29.92,17.23-59.86,34.43-89.74,51.75
			c-2.33,1.35-3.95,1.34-6.33-0.03c-62.73-36.18-125.48-72.32-188.3-108.34c-40.74-23.36-81.6-46.53-122.41-69.78
			c-0.97-0.55-1.93-1.13-3.33-1.94c4.17-2.44,8.07-4.76,12-7.02c35.1-20.21,70.23-40.37,105.27-60.69c2.95-1.71,5.01-1.72,7.98-0.01
			c102.73,59.15,205.51,118.2,308.29,177.26C678.34,195.31,679.62,196.08,681.57,197.23z"/>
		<path class="st1" d="M365.79,415.58c34.86,20.05,69.13,39.76,103.96,59.79c-7.48,4.31-14.46,8.32-21.43,12.33
			c-32.04,18.46-64.1,36.88-96.08,55.43c-2.5,1.45-4.25,1.45-6.73,0.01c-32.54-18.83-65.15-37.54-97.74-56.28
			c-1.08-0.62-2.15-1.24-3.61-2.08c40.2-23.16,80.15-46.17,120.61-69.49c-34.76-19.99-69.06-39.72-103.92-59.77
			c3.13-1.84,5.76-3.4,8.41-4.93c36.47-21,72.95-41.98,109.41-63.01c1.8-1.04,3.2-1.71,5.38-0.45
			c33.62,19.45,67.31,38.79,100.98,58.16c0.32,0.18,0.59,0.46,1.15,0.9C446.13,369.29,406.17,392.31,365.79,415.58z"/>
	</g>
</g>
</svg>
