<?xml version="1.0" encoding="utf-8"?>
<!-- Generator: Adobe Illustrator 26.0.3, SVG Export Plug-In . SVG Version: 6.00 Build 0)  -->
<svg version="1.1" id="Ebene_1" xmlns:serif="http://www.serif.com/"
	 xmlns="http://www.w3.org/2000/svg" xmlns:xlink="http://www.w3.org/1999/xlink" x="0px" y="0px" viewBox="0 0 421.2 842.2"
	 style="enable-background:new 0 0 421.2 842.2;" xml:space="preserve">
<style type="text/css">
	
		.st0{fill-rule:evenodd;clip-rule:evenodd;fill:url(#SVGID_1_);stroke:#000000;stroke-width:0.2736;stroke-linecap:round;stroke-linejoin:round;stroke-miterlimit:3.1571;}
	.st1{fill-rule:evenodd;clip-rule:evenodd;fill:#242424;}
	.st2{fill-rule:evenodd;clip-rule:evenodd;fill:#252525;}
	.st3{fill-rule:evenodd;clip-rule:evenodd;fill:#222222;}
	.st4{fill-rule:evenodd;clip-rule:evenodd;fill:#1F1F1F;}
	.st5{fill-rule:evenodd;clip-rule:evenodd;fill:#1A1A1A;}
	.st6{fill-rule:evenodd;clip-rule:evenodd;fill:#181818;}
	.st7{fill-rule:evenodd;clip-rule:evenodd;fill:#161616;}
	.st8{fill-rule:evenodd;clip-rule:evenodd;fill:#191919;}
	.st9{fill-rule:evenodd;clip-rule:evenodd;fill:#111111;}
	.st10{fill-rule:evenodd;clip-rule:evenodd;fill:#0E0E0E;}
	.st11{fill-rule:evenodd;clip-rule:evenodd;fill:#080808;}
	.st12{fill-rule:evenodd;clip-rule:evenodd;fill:#070707;}
	.st13{fill-rule:evenodd;clip-rule:evenodd;fill:#121212;}
	.st14{fill-rule:evenodd;clip-rule:evenodd;fill:#151515;}
	.st15{fill-rule:evenodd;clip-rule:evenodd;fill:#0D0D0D;}
	.st16{fill-rule:evenodd;clip-rule:evenodd;fill:#1D1D1D;}
	.st17{fill-rule:evenodd;clip-rule:evenodd;fill:#1E1E1E;}
	.st18{fill-rule:evenodd;clip-rule:evenodd;fill:#1B1B1B;}
	.st19{fill-rule:evenodd;clip-rule:evenodd;fill:#101010;}
	.st20{fill-rule:evenodd;clip-rule:evenodd;fill:#0C0C0C;fill-opacity:0.95;}
	.st21{fill-rule:evenodd;clip-rule:evenodd;fill:#1C1C1C;}
	.st22{fill-rule:evenodd;clip-rule:evenodd;fill:#131313;}
	.st23{fill:#282828;}
	.st24{fill:#111111;}
	.st25{fill:#151515;}
</style>
<linearGradient id="SVGID_1_" gradientUnits="userSpaceOnUse" x1="-835.7197" y1="120.8877" x2="-834.7197" y2="120.8877" gradientTransform="matrix(-343.9457 -596.4179 596.4179 -343.9457 -359125.625 -456081.7812)">
	<stop  offset="0" style="stop-color:#080808"/>
	<stop  offset="1" style="stop-color:#242424"/>
</linearGradient>
<rect x="0.1" y="0.1" class="st0" width="420.9" height="841.9"/>
<g id="Dreiecke">
	<path class="st1" d="M147,152.1L0.1,0.1h130L147,152.1z"/>
	<path class="st2" d="M147,152.1L0.1,0.1v106.7L147,152.1z"/>
	<path class="st3" d="M147,152.1v62.7L0.1,134.3v-27.5L147,152.1z"/>
	<path class="st1" d="M0.1,268.5L147,214.8L0.1,134.3V268.5z"/>
	<path class="st4" d="M0.1,268.5L147,214.8L99.1,421.1L0.1,268.5z"/>
	<path class="st4" d="M0.1,268.5v201l8.4,2.1L99,421.1L0.1,268.5z"/>
	<path class="st5" d="M33.8,528.4L8.6,471.6l90.5-50.5L33.8,528.4z"/>
	<path class="st6" d="M33.8,528.4l204.2,19L99.1,421.1L33.8,528.4z"/>
	<path class="st7" d="M33.8,528.4l204.2,19l-124.2,84.2L33.8,528.4z"/>
	<path class="st8" d="M33.8,528.4H0.1v189.4l113.7-86.3L33.8,528.4z"/>
	<path class="st7" d="M135.9,732.6L33.8,842H0.1V717.8l113.7-86.3L135.9,732.6z"/>
	<path class="st9" d="M135.9,732.6l137.9-14.7L238,547.4l-124.2,84.2L135.9,732.6z"/>
	<path class="st10" d="M135.9,732.6l137.9-14.7L256.9,842h-121V732.6z"/>
	<path class="st11" d="M421.1,799.9l-147.3-82.1L256.9,842h164.2L421.1,799.9L421.1,799.9z"/>
	<path class="st12" d="M421.1,799.9l-147.3-82.1l147.3-128.4L421.1,799.9L421.1,799.9z"/>
	<path class="st13" d="M135.9,732.6L33.8,842h102.1V732.6z"/>
	<path class="st14" d="M286.4,395.8L238,547.4L99.1,421.1L286.4,395.8z"/>
	<path class="st9" d="M286.4,395.8L238,547.4l160-126.3L286.4,395.8z"/>
	<path class="st15" d="M273.8,717.8L238,547.4l160-126.3l23.2,37.9v130.5L273.8,717.8z"/>
	<path id="_1" serif:id="1" class="st16" d="M33.8,528.4L8.6,471.6l-8.4-2.1v58.9H33.8z"/>
	<path class="st17" d="M147,152.1l133.5-17.8L181.2,0.1h-51L147,152.1z"/>
	<path class="st18" d="M147,152.1l133.5-17.8L147,214.8V152.1z"/>
	<path class="st6" d="M290.6,303.2l-10.1-168.9L147,214.8L290.6,303.2z"/>
	<path class="st8" d="M290.6,303.2L99.1,421.1L147,214.8L290.6,303.2z"/>
	<path class="st7" d="M290.6,303.2L99.1,421.1l187.3-25.3L290.6,303.2z"/>
	<path class="st9" d="M290.6,303.2l107.3,117.9l-111.6-25.3L290.6,303.2z"/>
	<path class="st19" d="M290.6,303.2l107.3,117.9l23.2-40.5v-65.8L290.6,303.2z"/>
	<path class="st20" d="M421.1,459l-23.2-37.9l23.2-40.5V459z"/>
	<path class="st21" d="M325.9,0.1l-45.4,134.2L181.2,0.1H325.9z"/>
	<path class="st14" d="M325.9,0.1l-45.4,134.2l140.6-24V0.1H325.9z"/>
	<path class="st9" d="M421.1,284.8L280.5,134.3l140.6-24V284.8z"/>
	<path class="st22" d="M421.1,284.8L280.5,134.3l10.1,168.9l130.5,11.6V284.8z"/>
</g>
<g>
	<g>
		<path class="st23" d="M206.3,553.1c7.2-6.7,15.9-7.9,25.1-7.6c4.6,0.2,9.2,0,13.9,0.1c4.6,0.1,7.7,2.9,7.9,6.9
			c0.2,4.2-2.6,7.4-7.5,7.6c-6.5,0.3-13,0.1-19.5,0.1c-8.8,0.1-14.2,5.5-14.2,14.3c0,16.2,0,32.5,0,48.7c0,1,0.1,1.9,0.2,3.3
			c7.4,0,14.6,0,21.8,0c3.8,0,7.5,0,11.2,0c4.7,0.1,7.9,3,8,7.1c0.1,4.2-3,7.2-7.8,7.2c-27,0-54,0-81,0c-5.2,0-7.9-2.6-7.9-7.7
			c0-21.2-0.1-42.5,0-63.7c0.1-11.1,7.4-21.3,18-25.3c10.4-4,22.1-1.3,29.9,6.9C204.9,551.6,205.5,552.3,206.3,553.1z M197.6,626.7
			c0-19.4,0.2-38.3-0.1-57.1c-0.1-7.7-6.9-13.3-14.7-12.7c-7.1,0.5-12.1,6.5-12.2,14.9c-0.1,17.5,0,34.9,0,52.4
			c0,0.7,0.2,1.4,0.3,2.4c7.4,0,14.6,0,21.8,0C194.3,626.7,195.7,626.7,197.6,626.7z"/>
		<path class="st23" d="M204.7,417.7c-26.9-0.2-48.4-22-48.2-48.9c0.1-26.8,22.1-48.5,48.9-48.2c26.5,0.2,48,22.3,47.9,48.9
			C253,396.1,231.1,417.9,204.7,417.7z M204.9,403.1c18.5,0,33.9-15.3,33.9-33.8c0-18.7-15.4-34.3-33.9-34.4s-34,15.5-34.1,34.2
			C170.8,387.8,186.1,403.1,204.9,403.1z"/>
		<path class="st23" d="M163.5,442.8c0-4.8,0-9.4,0-14c22.3,0.1,41.2,14.7,46.8,36.2c0.7,2.5,1.5,3.4,4.2,3.4
			c10.1-0.2,20.2-0.1,30.3-0.1c5.2,0,8.3,2.7,8.3,7.1c0.1,4.4-3.1,7.2-8.2,7.2c-11,0-21.9,0-33,0c-5.3,26.7-21.3,41.2-48.6,43.6
			c0-4.9,0-9.5,0-14.6c12-0.7,22-5.6,28.7-15.9c4.1-6.2,5.9-13.2,5.4-20.6C196.3,457.6,185.5,447.4,163.5,442.8z"/>
		<path class="st23" d="M181.4,284.6c5,0,9.3,0,13.6,0c16.2,0,32.5,0,48.7,0c3.4,0,6.5,0.6,8.4,3.8c2.4,4.1,0.4,9.2-4.1,10.5
			c-1.5,0.4-3.2,0.6-4.8,0.6c-25.7,0-51.4,0-77.1,0c-2,0-4.3-0.4-6.1-1.3c-4.1-2.1-4.9-7.7-1.5-11.2c9.6-9.8,19.3-19.6,29-29.2
			c3.2-3.2,7.4-3.1,10.4-0.1c2.8,2.8,2.9,7.2-0.1,10.4C192.6,273.4,187.3,278.7,181.4,284.6z"/>
		<path class="st23" d="M228.4,216.5c-2.5,0-3.8,0-5.2,0c-19.6,0-39.2,0-58.9,0c-3.2,0-6.1-0.9-6.9-4c-0.6-2.2-0.5-5.3,0.6-7.3
			c0.9-1.6,3.8-3,5.8-3c27.4-0.2,54.7-0.1,82.1-0.1c3.1,0,5.2,1.3,6.6,4.1s1.2,5.6-0.9,7.7c-10,10.2-20,20.3-30.2,30.2
			c-2.7,2.7-7.3,2.1-9.8-0.7c-2.6-2.9-2.6-7,0.1-9.9c4.4-4.6,8.9-9.1,13.4-13.6C226,219,226.8,218,228.4,216.5z"/>
		<path class="st23" d="M238.9,132c0-13.2,0-26.5,0-39.7c0-5.3,2.8-8.7,7.2-8.6c4.4,0.1,7.1,3.3,7.1,8.7c0,26.6,0,53.2,0,79.8
			c0,5.4-2.7,8.6-7.2,8.6s-7.1-3.2-7.1-8.7C238.9,158.7,238.9,145.2,238.9,132z"/>
		<path class="st23" d="M156.4,131.9c0-13.2,0-26.5,0-39.7c0-5.3,2.8-8.7,7.2-8.6c4.5,0.1,7.1,3.3,7.1,8.7c0,26.6,0,53.2,0,79.8
			c0,5.4-2.8,8.6-7.2,8.6c-4.4,0-7.1-3.2-7.1-8.7C156.4,158.7,156.4,145.2,156.4,131.9z"/>
		<path class="st23" d="M212,132.2c0,13.4,0,26.7,0,40.1c0,5.2-2.6,8.3-7,8.4c-4.5,0.1-7.3-3.2-7.3-8.5c0-26.7,0-53.5,0-80.2
			c0-5.1,2.7-8.3,7-8.4c4.4-0.1,7.3,3.2,7.3,8.5C212,105.5,212,118.9,212,132.2z"/>
		<path class="st23" d="M170.7,710.2c0,13.4,0,26.7,0,40.1c0,5.2-2.6,8.2-7,8.3c-4.6,0.1-7.3-3-7.3-8.4c0-26.7,0-53.5,0-80.2
			c0-5.2,2.6-8.3,7-8.3c4.6-0.1,7.3,2.9,7.3,8.4C170.7,683.5,170.7,696.9,170.7,710.2z"/>
		<path class="st23" d="M212,710.5c0,13.2,0,26.5,0,39.7c0,5.5-2.6,8.5-7.2,8.4c-4.4,0-7-3.1-7-8.3c0-26.7,0-53.5,0-80.2
			c0-5.5,2.6-8.5,7.2-8.4c4.6,0.1,7,3.1,7.1,8.6C212,683.7,212,696.9,212,710.5z"/>
		<path class="st23" d="M253.2,710.4c0,13.2,0,26.5,0,39.7c0,5.5-2.6,8.5-7.2,8.5c-4.6,0-7.1-3.1-7.1-8.6c0-26.6,0-53.2,0-79.8
			c0-5.5,2.6-8.5,7.2-8.5s7.1,3,7.1,8.6C253.2,683.7,253.2,696.9,253.2,710.4z"/>
		<path class="st24" d="M197.6,626.7c-1.9,0-3.4,0-4.8,0c-7.2,0-14.4,0-21.8,0c-0.1-1-0.3-1.7-0.3-2.4c0-17.5-0.1-34.9,0-52.4
			c0-8.4,5-14.4,12.2-14.9c7.7-0.6,14.6,5,14.7,12.7C197.8,588.4,197.6,607.2,197.6,626.7z"/>
		<path class="st25" d="M204.9,403.1c-18.8,0-34.1-15.3-34.1-34c0-18.6,15.6-34.2,34.1-34.2c18.5,0.1,33.9,15.7,33.9,34.4
			C238.8,387.8,223.4,403.1,204.9,403.1z"/>
	</g>
</g>
</svg>
